<svg version="1.1" xmlns="http://www.w3.org/2000/svg" width="512" height="512">
<path d="M0 0 C8.33767314 3.70563251 13.0596206 13.49972419 17.6875 21 C23.21339188 29.84678189 29.00335058 38.46709257 35 47 C35.3933252 47.56428711 35.78665039 48.12857422 36.19189453 48.70996094 C42.86902684 58.28418446 49.94218975 67.54702224 57.0390625 76.8125 C60.47907572 81.30679065 63.87165796 85.83429645 67.25 90.375 C71.59797134 96.20576737 76.08166164 101.91190415 80.64599609 107.57446289 C84.18537456 111.96775544 87.65405002 116.40599939 91.07958984 120.88891602 C93.44930947 123.98838991 95.83532133 127.07377467 98.2421875 130.14453125 C146.43776944 191.65373472 194.99767351 260.57657567 185.69140625 342.73828125 C180.50856112 384.3632476 162.22743101 422.24617153 133.8125 452.9375 C133.2546582 453.54021729 132.69681641 454.14293457 132.12207031 454.76391602 C104.44086688 484.08082693 66.40551707 502.84878025 27 510 C26.09556152 510.17660156 25.19112305 510.35320312 24.25927734 510.53515625 C14.38751048 512.28818921 4.61908911 512.39810934 -5.375 512.375 C-6.25950836 512.37445618 -7.14401672 512.37391235 -8.05532837 512.37335205 C-22.05098777 512.33383013 -35.3875135 511.48354121 -49 508 C-49.90186035 507.77505859 -50.8037207 507.55011719 -51.73291016 507.31835938 C-75.44289894 501.28595992 -98.17882311 491.4977751 -118 477 C-119.50820312 475.9171875 -119.50820312 475.9171875 -121.046875 474.8125 C-127.50475261 470.02422001 -133.49658963 464.85892734 -139.375 459.375 C-140.02887695 458.7658374 -140.68275391 458.1566748 -141.35644531 457.52905273 C-177.52817017 423.22303707 -196.93654657 374.39643783 -199.12890625 325.1015625 C-200.5775177 251.51210097 -156.23570041 189.52210448 -113 134 C-111.92176762 132.61206258 -110.8436499 131.22403608 -109.765625 129.8359375 C-106.78431712 125.99893047 -103.79980439 122.16442794 -100.81445312 118.33056641 C-99.03712937 116.04769066 -97.26057188 113.76422134 -95.484375 111.48046875 C-94.90913086 110.74086914 -94.33388672 110.00126953 -93.74121094 109.23925781 C-92.57752945 107.74272295 -91.41411928 106.24597708 -90.25097656 104.74902344 C-87.34132302 101.00525839 -84.42641134 97.2658408 -81.5 93.53515625 C-73.12247084 82.84033872 -64.99905582 71.98025375 -57 61 C-56.15042725 59.83887695 -56.15042725 59.83887695 -55.28369141 58.65429688 C-46.61320676 46.80173193 -38.23216056 34.82807528 -30.48046875 22.3515625 C-29.86357178 21.36446289 -29.2466748 20.37736328 -28.61108398 19.36035156 C-27.39673584 17.41242435 -26.19137181 15.45885909 -24.99633789 13.49902344 C-18.32793003 2.80428053 -12.87287363 -1.16565391 0 0 Z M-90.5703125 208.73046875 C-98.47359981 218.36135907 -102.5084795 230.98227175 -101.80859375 243.39453125 C-100.9362444 250.14541496 -99.32389433 256.05661279 -96 262 C-95.59007812 262.73734375 -95.18015625 263.4746875 -94.7578125 264.234375 C-88.58881521 274.34177169 -80.07568305 280.99998093 -69 285 C-68.34644531 285.24492187 -67.69289062 285.48984375 -67.01953125 285.7421875 C-55.30714579 289.38826059 -42.55006245 287.12812294 -31.7265625 281.90234375 C-29.69403852 280.71737423 -27.86257356 279.43717096 -26 278 C-25.24976563 277.42378906 -24.49953125 276.84757812 -23.7265625 276.25390625 C-18.02490492 271.54672383 -14.26705661 266.61355533 -11 260 C-10.58621094 259.20335937 -10.17242187 258.40671875 -9.74609375 257.5859375 C-5.09194055 247.11003867 -5.22344749 233.72796949 -9 223 C-14.99043237 209.77393302 -23.82251629 200.68673569 -37.16015625 195 C-56.32574465 188.25118208 -76.95757019 193.72936218 -90.5703125 208.73046875 Z M58.02789307 233.5642395 C57.01164073 234.56923848 57.01164073 234.56923848 55.97485805 235.59454048 C53.71076299 237.83733509 51.45749072 240.09069121 49.20410156 242.34423828 C47.58145682 243.95626764 45.95820642 245.56768757 44.33439636 247.17854309 C39.92854709 251.55362218 35.53254853 255.93847048 31.13919926 260.32609797 C28.39389478 263.0670479 25.64659064 265.80597705 22.89858246 268.54421616 C15.28458653 276.13141559 7.67267593 283.72067614 0.07085037 291.32007027 C-0.41509164 291.8058567 -0.90103364 292.29164314 -1.40170117 292.79215037 C-2.38672142 293.77687958 -3.37173884 294.76161162 -4.35675344 295.74634649 C-4.84568984 296.23514004 -5.33462625 296.72393359 -5.83837891 297.22753906 C-6.32791271 297.7169332 -6.81744652 298.20632734 -7.32181469 298.7105516 C-15.25710284 306.64270345 -23.20898911 314.55798442 -31.16839978 322.46592368 C-39.34729142 330.59234615 -47.51267419 338.73210608 -55.66540742 346.88477695 C-60.24028214 351.45911328 -64.82052868 356.02773865 -69.41460419 360.582798 C-73.73437732 364.86674949 -78.03709652 369.16712181 -82.32730675 373.48067284 C-83.90388112 375.06011064 -85.48644756 376.63359345 -87.07539558 378.2005825 C-89.2454583 380.34250474 -91.39277823 382.50495686 -93.53582764 384.67385864 C-94.1679157 385.28760318 -94.80000377 385.90134772 -95.45124602 386.53369057 C-99.65248839 390.85027551 -101.67754421 394.91039119 -102 401 C-100.86632311 407.24827202 -98.11669649 410.40742587 -93 414 C-90.59933502 415.20033249 -88.9290818 415.23537492 -86.25 415.3125 C-85.40953125 415.34988281 -84.5690625 415.38726562 -83.703125 415.42578125 C-77.25920299 414.41077041 -72.56633218 408.85795447 -68.14851379 404.42266846 C-67.48396846 403.7633598 -66.81942313 403.10405115 -66.13474005 402.42476344 C-63.91684682 400.22183102 -61.70612033 398.01184801 -59.49536133 395.80175781 C-57.9036959 394.21771631 -56.31162941 392.63407771 -54.7191925 391.05081177 C-50.4004414 386.75398517 -46.08826214 382.45062221 -41.7779181 378.14536381 C-39.08431002 375.45540068 -36.3894087 372.76674007 -33.694067 370.0785141 C-26.22484046 362.62873435 -18.75708139 355.17749484 -11.29611683 347.71944046 C-10.81932922 347.24284042 -10.3425416 346.76624038 -9.85130588 346.27519791 C-8.88485794 345.3091162 -7.91841126 344.34303322 -6.95196585 343.37694898 C-6.47225315 342.8974191 -5.99254046 342.41788922 -5.49829102 341.92382812 C-5.01799136 341.44370902 -4.53769171 340.96358992 -4.04283752 340.46892175 C3.74386281 332.68576479 11.54224139 324.91442423 19.34583076 317.14820424 C27.36612419 309.16601021 35.37677541 301.17426486 43.37841779 293.17336535 C47.86786617 288.68471027 52.36121077 284.2001299 56.8644619 279.72531891 C61.09850845 275.51741757 65.32044873 271.29773694 69.5334034 267.06872177 C71.08066635 265.51964176 72.63220527 263.97481903 74.18831635 262.43462753 C76.31380702 260.32956074 78.42326337 258.20960765 80.52946472 256.08526611 C81.1469671 255.4809637 81.76446948 254.87666129 82.40068406 254.25404668 C86.82541242 249.74194067 89.95148794 244.99618106 90.03125 238.42578125 C88.39926747 231.93385076 85.85005734 228.75854602 80.0625 225.1875 C70.515262 221.48550975 64.44932038 227.10196825 58.02789307 233.5642395 Z M8.25 366.5625 C-2.21652395 377.90123428 -5.54527949 389.26568399 -5.2421875 404.359375 C-4.75241338 416.51159218 1.10745936 427.10280334 9.99609375 435.375 C22.86318943 445.80913606 34.8268022 448.27161233 51 447 C62.47033844 445.34001621 72.75573449 437.80114713 80 429 C87.78642208 418.06361627 91.21285623 406.4700988 89.375 393.0625 C86.82446045 380.09166399 80.97055898 369.21564832 70.3125 361.1875 C49.55409593 347.74063182 26.1773148 349.85750212 8.25 366.5625 Z " fill="#fff" transform="translate(262,0)"/>
<path d="M0 0 C3.89490901 3.23350936 6.51938349 6.1231513 7.19921875 11.28515625 C7.2899841 17.70226675 6.91116838 21.6485681 2.86328125 26.734375 C-1.90851148 30.45637333 -5.67230502 31.39232699 -11.70703125 31.1171875 C-16.93249311 30.29388322 -20.08063848 27.98499637 -23.51171875 23.921875 C-26.13499358 18.77622052 -26.63542063 14.71986455 -25.13671875 9.171875 C-23.36686229 4.40060298 -20.47815006 1.3485702 -16.13671875 -1.265625 C-10.9442433 -3.04921921 -4.75451394 -2.81620204 0 0 Z " fill="#fff" transform="translate(217.13671875,225.265625)"/>
<path d="M0 0 C3.82499066 4.28034669 5.76140192 8.48766815 5.53125 14.30859375 C4.57365256 19.76874069 2.62045461 23.12788049 -1.375 26.9375 C-5.84189373 29.74526178 -11.26803085 29.57587114 -16.375 28.9375 C-20.29130223 27.63206592 -22.93381817 25.38999419 -25.8125 22.4375 C-28.12243187 17.26325261 -28.12570518 12.51416708 -27.375 6.9375 C-24.78601482 1.36122424 -20.79374649 -1.76892025 -15.0625 -3.9375 C-9.40861489 -4.2004714 -4.8187751 -2.94480701 0 0 Z " fill="#fff" transform="translate(315.375,387.0625)"/>
</svg>
